<svg xmlns="http://www.w3.org/2000/svg" xmlns:xlink="http://www.w3.org/1999/xlink" version="1.1" x="0px" y="0px" viewBox="0 0 100 125" style="enable-background:new 0 0 100 100;" xml:space="preserve"><g><g><path d="M71.5,65.6c-14.9,0-15.7-0.4-19.2-2.1c-5.7-2.8-7.7-6.7-10.3-12.9c-0.8-1.8-1.5-3.6-2.5-5.5    C32.4,31.4,16.6,22.8,1.2,24.2c-0.6,0.1-1.2-0.4-1.2-1c-0.1-0.6,0.4-1.2,1-1.2c16.3-1.5,32.9,7.6,40.4,22.1c1,1.9,1.8,3.8,2.6,5.6    c2.5,5.8,4.2,9.3,9.2,11.8c3.1,1.5,3.8,1.9,18.2,1.9c2.4,0,5,0,8,0l0.9,0c5,0,11.1,0,18.5,0c0.6,0,1.1,0.5,1.1,1.1    c0,0.6-0.5,1.1-1.1,1.1c-7.4,0-13.5,0-18.5,0l-0.9,0C76.5,65.6,73.8,65.6,71.5,65.6z"/></g><g><path d="M71.5,76.7c-15.3,0-18.2-0.4-24-3.2c-9.8-4.8-13-12.4-15.6-18.5c-0.7-1.7-1.4-3.2-2.1-4.7    c-5-9.7-16.6-16-27.4-15c-0.6,0.1-1.2-0.4-1.2-1c-0.1-0.6,0.4-1.2,1-1.2c11.7-1.1,24.2,5.7,29.6,16.1c0.8,1.6,1.5,3.2,2.2,4.8    c2.5,5.8,5.5,12.9,14.6,17.4c5.5,2.7,8.1,3,23.1,3c2.6,0,5.5,0,8.8,0l0.1,0c5,0,11.1,0,18.5,0c0.6,0,1.1,0.5,1.1,1.1    c0,0.6-0.5,1.1-1.1,1.1c-7.4,0-13.5,0-18.5,0l-0.1,0C76.9,76.7,74,76.7,71.5,76.7z"/></g><g><path d="M2.1,86.7c-0.6,0-1.1-0.5-1.1-1.1V34.1C1,33.5,1.5,33,2.1,33c0.6,0,1.1,0.5,1.1,1.1v51.5    C3.2,86.2,2.7,86.7,2.1,86.7z"/></g><g><path d="M11.8,86.7c-0.6,0-1.1-0.5-1.1-1.1V35.1c0-0.6,0.5-1.1,1.1-1.1c0.6,0,1.1,0.5,1.1,1.1v50.5    C12.9,86.2,12.4,86.7,11.8,86.7z"/></g><g><path d="M21.4,86.7c-0.6,0-1.1-0.5-1.1-1.1V40.2c0-0.6,0.5-1.1,1.1-1.1s1.1,0.5,1.1,1.1v45.4    C22.5,86.2,22,86.7,21.4,86.7z"/></g><g><path d="M31,86.7c-0.6,0-1.1-0.5-1.1-1.1v-35c0-0.6,0.5-1.1,1.1-1.1c0.6,0,1.1,0.5,1.1,1.1v35    C32.1,86.2,31.6,86.7,31,86.7z"/></g><g><path d="M40.6,86.7c-0.6,0-1.1-0.5-1.1-1.1V68.1c0-0.6,0.5-1.1,1.1-1.1c0.6,0,1.1,0.5,1.1,1.1v17.5    C41.8,86.2,41.3,86.7,40.6,86.7z"/></g><g><path d="M50.3,86.7c-0.6,0-1.1-0.5-1.1-1.1V74.1c0-0.6,0.5-1.1,1.1-1.1c0.6,0,1.1,0.5,1.1,1.1v11.5    C51.4,86.2,50.9,86.7,50.3,86.7z"/></g><g><path d="M59.9,86.7c-0.6,0-1.1-0.5-1.1-1.1v-10c0-0.6,0.5-1.1,1.1-1.1c0.6,0,1.1,0.5,1.1,1.1v10    C61,86.2,60.5,86.7,59.9,86.7z"/></g><g><path d="M69.5,86.7c-0.6,0-1.1-0.5-1.1-1.1v-10c0-0.6,0.5-1.1,1.1-1.1c0.6,0,1.1,0.5,1.1,1.1v10    C70.6,86.2,70.2,86.7,69.5,86.7z"/></g><g><path d="M79.2,86.7c-0.6,0-1.1-0.5-1.1-1.1v-10c0-0.6,0.5-1.1,1.1-1.1c0.6,0,1.1,0.5,1.1,1.1v10    C80.3,86.2,79.8,86.7,79.2,86.7z"/></g><g><path d="M88.8,86.7c-0.6,0-1.1-0.5-1.1-1.1v-10c0-0.6,0.5-1.1,1.1-1.1c0.6,0,1.1,0.5,1.1,1.1v10    C89.9,86.2,89.4,86.7,88.8,86.7z"/></g><g><path d="M98.9,86.7c-0.6,0-1.1-0.5-1.1-1.1v-10c0-0.6,0.5-1.1,1.1-1.1c0.6,0,1.1,0.5,1.1,1.1v10    C100,86.2,99.5,86.7,98.9,86.7z"/></g><g><path d="M95.5,56.3H72c-2.3,0-4.2-1.9-4.2-4.2v-9.4c0-2,1.6-3.6,3.6-3.6c1.4,0,2.7,0.8,3.3,2.1l0.6,1.3    c0.6,1.4,2,2.2,3.5,2.2l16.2,0c2.6,0,4.8,2.2,4.8,4.8v2.6C99.7,54.4,97.8,56.3,95.5,56.3z M71.4,41.3c-0.8,0-1.4,0.6-1.4,1.4v9.4    c0,1.1,0.9,2,2,2h23.5c1.1,0,2-0.9,2-2v-2.6c0-1.4-1.1-2.6-2.6-2.6l-16.2,0c-2.4,0-4.5-1.4-5.5-3.5l-0.6-1.3    C72.4,41.6,71.9,41.3,71.4,41.3z"/></g><g><path d="M91.1,62.1c-1.8,0-3.2-1.4-3.2-3.2c0-0.6,0.5-1.1,1.1-1.1c0.6,0,1.1,0.5,1.1,1.1c0,0.5,0.4,1,1,1    c0.5,0,1-0.4,1-1c0-0.6,0.5-1.1,1.1-1.1c0.6,0,1.1,0.5,1.1,1.1C94.3,60.7,92.8,62.1,91.1,62.1z"/></g><g><path d="M75.7,62.1c-1.8,0-3.2-1.4-3.2-3.2c0-0.6,0.5-1.1,1.1-1.1c0.6,0,1.1,0.5,1.1,1.1c0,0.5,0.4,1,1,1    c0.5,0,1-0.4,1-1c0-0.6,0.5-1.1,1.1-1.1c0.6,0,1.1,0.5,1.1,1.1C78.8,60.7,77.4,62.1,75.7,62.1z"/></g><g><path d="M44.9,29.8c-0.8,0-1.5-0.2-2.2-0.6L22.7,16.8c-2-1.2-2.6-3.8-1.4-5.8l5-8c1-1.7,3.3-2.2,4.9-1.2    c1.2,0.7,1.8,2.1,1.7,3.5l-0.2,1.5c-0.2,1.5,0.5,2.9,1.8,3.7L48.3,19c2.2,1.4,2.9,4.3,1.5,6.6l-1.3,2.2c-0.6,1-1.5,1.6-2.6,1.9    C45.5,29.7,45.2,29.8,44.9,29.8z M29.4,3.5c-0.5,0-0.9,0.2-1.2,0.6l-5,8c-0.6,0.9-0.3,2.2,0.6,2.8l19.9,12.4    c0.5,0.3,1,0.4,1.5,0.3c0.5-0.1,1-0.4,1.2-0.9l1.3-2.2c0.7-1.2,0.4-2.8-0.8-3.5l-13.7-8.5c-2-1.2-3.1-3.6-2.8-5.9L30.7,5    c0.1-0.5-0.2-1.1-0.6-1.3C29.9,3.5,29.6,3.5,29.4,3.5z"/></g><g><path d="M37.5,32.2c-0.6,0-1.2-0.2-1.7-0.5c-1.5-0.9-2-2.9-1-4.4c0.3-0.5,1-0.7,1.5-0.4c0.5,0.3,0.7,1,0.4,1.5    c-0.3,0.5-0.1,1.1,0.3,1.3c0.5,0.3,1.1,0.1,1.3-0.3c0.3-0.5,1-0.7,1.5-0.4c0.5,0.3,0.7,1,0.4,1.5c-0.4,0.7-1.2,1.2-2,1.4    C38,32.2,37.8,32.2,37.5,32.2z"/></g><g><path d="M24.4,24.1c-0.6,0-1.2-0.2-1.7-0.5c-0.7-0.4-1.2-1.2-1.4-2c-0.2-0.8-0.1-1.7,0.4-2.4    c0.3-0.5,1-0.7,1.5-0.4c0.5,0.3,0.7,1,0.4,1.5c-0.1,0.2-0.2,0.5-0.1,0.7c0.1,0.3,0.2,0.5,0.4,0.6c0.2,0.1,0.5,0.2,0.7,0.1    c0.3-0.1,0.5-0.2,0.6-0.4c0.3-0.5,1-0.7,1.5-0.4c0.5,0.3,0.7,1,0.4,1.5C26.6,23.6,25.5,24.1,24.4,24.1z"/></g><g><path d="M98.9,86.7H2.1c-0.6,0-1.1-0.5-1.1-1.1s0.5-1.1,1.1-1.1h96.8c0.6,0,1.1,0.5,1.1,1.1S99.5,86.7,98.9,86.7z    "/></g><g><path d="M98.9,98.8H2.1c-0.6,0-1.1-0.5-1.1-1.1s0.5-1.1,1.1-1.1h96.8c0.6,0,1.1,0.5,1.1,1.1S99.5,98.8,98.9,98.8z    "/></g><g><path d="M60,52c-3.5,0-6.9-2-8.5-5.1c-0.6-1.2-1-2.5-1.3-3.7c-0.1-0.5-0.3-1-0.4-1.5c-0.6-1.9-1.4-3.1-2.4-3.7    c-0.5-0.3-0.7-1-0.4-1.5c0.3-0.5,1-0.7,1.5-0.4c1.5,0.9,2.6,2.5,3.4,4.9c0.2,0.5,0.3,1.1,0.5,1.6c0.3,1.2,0.6,2.3,1.1,3.2    c1.3,2.5,4.1,4.1,6.9,3.9c0.6,0,1.1,0.4,1.2,1c0,0.6-0.4,1.1-1,1.2C60.4,52,60.2,52,60,52z"/></g><g><path d="M61.6,46.4c-1.9,0-3.7-0.9-4.9-2.3c-1-1.3-1.5-2.8-1.8-4.1l-0.1-0.4c-0.3-1.1-0.6-2.2-1.1-3.1    c-0.5-0.8-1.3-1.6-2.3-1.7c-0.6,0-1.1-0.6-1-1.2c0-0.6,0.6-1.1,1.2-1c1.6,0.1,3.1,1.2,4.1,2.8c0.7,1.2,1,2.5,1.3,3.7l0.1,0.4    c0.3,1.1,0.7,2.4,1.4,3.3c0.8,1,2.3,1.6,3.6,1.5c0.6-0.1,1.2,0.4,1.2,1c0.1,0.6-0.4,1.2-1,1.2C62,46.4,61.8,46.4,61.6,46.4z"/></g></g><text x="0" y="115" fill="#000000" font-size="5px" font-weight="bold" font-family="'Helvetica Neue', Helvetica, Arial-Unicode, Arial, Sans-serif">Created by Andrei Yushchenko</text><text x="0" y="120" fill="#000000" font-size="5px" font-weight="bold" font-family="'Helvetica Neue', Helvetica, Arial-Unicode, Arial, Sans-serif">from the Noun Project</text></svg>