<svg xmlns="http://www.w3.org/2000/svg" xmlns:xlink="http://www.w3.org/1999/xlink" version="1.1" x="0px" y="0px" viewBox="0 0 100 125" style="enable-background:new 0 0 100 100;" xml:space="preserve"><g><path d="M67,59.8H41.4c-1,0-1.9,0-2.9,0.1c-2.1-5.5-6-11.4-13.6-14.9c1.3,0.1,2.8,0.4,4.4,1.1c0.5,0.2,1.1,0,1.3-0.5l0.3-0.8   l1.8,1.8c0.2,0.2,0.5,0.3,0.8,0.3c0,0,4.3-0.4,5.2,2.4c0.1,0.4,0.5,0.7,0.9,0.7c0,0,0,0,0,0c0.4,0,0.8-0.3,0.9-0.6   c0.1-0.3,2.4-6.5-1.5-9.9c-2.3-2-7.5-2.7-12.1-1.7c-2.3,0.5-4.3,1.5-5.8,2.7c0.6-1.1,1.5-2.2,2.9-2.9c0.5-0.2,0.7-0.7,0.5-1.2   l-0.2-0.5h1.6c0.3,0,0.6-0.1,0.8-0.3c0.1-0.2,3.4-3.8,9.1-2.5c0.4,0.1,0.8-0.1,1.1-0.4c0.2-0.4,0.2-0.8,0-1.1   c-0.1-0.2-3.4-4.4-8.4-4.4c0,0-0.1,0-0.1,0c-2.4,0-5.1,1.7-7.2,4.4c-2.6,3.3-3.7,7.4-3.1,11.1c-2.7-0.9-6.5-1.1-9.6,0.5   c-2.4,1.2-4,3.4-4.5,6.2c-0.5,2.5-0.1,4.6,1.1,6c1.8,2.3,4.9,2.3,5,2.3c0,0,0,0,0,0c0.3,0,0.6-0.1,0.8-0.4c0.2-0.3,0.3-0.6,0.2-0.9   c-0.5-1.8,1-5.1,1.7-6.2c0.1-0.3,0.2-0.6,0.1-0.8l-0.3-0.9H13c0.4,0,0.8-0.3,0.9-0.7c0.7-2,2.4-2.6,3.6-2.8   c-1.3,1.6-2.1,4.2-1.9,6.7c0.2,2.9,1.6,5.1,3.8,6.3c1.9,1,3.6,1.4,5,1.4c2.3,0,3.8-0.9,3.9-1c0.4-0.2,0.5-0.7,0.4-1.1   c-0.1-0.2-1.3-4.2-5.1-6.1c-1.2-0.6-2-1.9-2.4-3.6c3.2,2.2,8.3,6.8,10.3,13.9c-3,0.9-5.9,2.2-8.4,4c-5.2,3.5-9,8.6-10.6,14.1   c-0.1,0.3,0,0.6,0.2,0.9s0.5,0.4,0.8,0.4H95c0.3,0,0.6-0.1,0.8-0.4C96,80,96,79.7,96,79.4C92.6,67.9,80.7,59.8,67,59.8z M12.3,46.4   h-0.9c-0.3,0-0.6,0.2-0.8,0.4s-0.2,0.6-0.1,0.9l0.6,1.8c-0.6,1-1.8,3.6-1.8,5.9c-0.7-0.2-1.7-0.6-2.3-1.4c-0.8-1-1.1-2.5-0.7-4.4   c0.4-2.2,1.6-3.8,3.4-4.8c1.3-0.7,2.9-1,4.4-1c0.2,0,0.5,0,0.7,0C13.7,44.4,12.8,45.2,12.3,46.4z M27.5,39.6   c4.4-1,8.8-0.1,10.3,1.2c1.7,1.5,1.7,3.9,1.4,5.6c-1.6-1.4-4-1.6-5.2-1.6c-0.1,0-0.2,0-0.2,0l-2.6-2.5c-0.2-0.2-0.6-0.3-0.9-0.3   c-0.3,0.1-0.6,0.3-0.7,0.6l-0.5,1.2c-3.5-1.3-6.4-1-7.8-0.7C23,40.9,25.8,40,27.5,39.6z M22.9,32.6c1.7-2.2,3.9-3.6,5.6-3.7   c0,0,0.1,0,0.1,0c1.9,0,3.6,0.8,4.8,1.7c-4.1,0.1-6.8,2.3-7.7,3.1h-2.6c-0.3,0-0.6,0.2-0.8,0.4c-0.2,0.3-0.2,0.6-0.1,0.9l0.3,1   c-0.9,0.6-1.7,1.3-2.2,2C20.7,36.2,21.6,34.3,22.9,32.6z M22.7,52.9c2.1,1.1,3.3,3.1,3.8,4.2c-1.1,0.4-3.2,0.8-6.1-0.8   c-2.1-1.2-2.6-3.5-2.7-4.7c-0.1-1.9,0.4-4,1.3-5.2C19.2,49.5,20.5,51.7,22.7,52.9z M23,46.3c14.8,6.1,15.7,21.4,15.7,25.4h-5   C36.2,58.5,28,50.1,23,46.3z M14.7,78.7c1.7-4.6,5-8.8,9.4-11.8c2.3-1.6,4.9-2.8,7.7-3.7c0.5,2.7,0.5,5.8-0.3,9.2   c-0.1,0.3,0,0.6,0.2,0.8c0.2,0.2,0.5,0.4,0.8,0.4h7.2c0.5,0,1-0.4,1-0.9c0-0.1,0.3-5-1.5-10.9c0.7-0.1,1.5-0.1,2.2-0.1H67   c12.3,0,23.1,6.9,26.7,16.9H14.7z"/><path d="M73.6,68.5H51.4L46,63.1c-0.4-0.4-1-0.4-1.4,0s-0.4,1,0,1.4l5.4,5.4v2.9c0,0.6,0.4,1,1,1s1-0.4,1-1v-2.3h18v2.3   c0,0.6,0.4,1,1,1s1-0.4,1-1v-2.3h1.6c0.6,0,1-0.4,1-1S74.2,68.5,73.6,68.5z"/><path d="M95,56.8c-2,0-2.9-0.3-3.9-0.6c-1.1-0.3-2.2-0.6-4.5-0.6c-2.2,0-3.4,0.3-4.5,0.6c-0.3,0.1-0.6,0.2-0.9,0.2   c-0.5,0.1-0.9,0.7-0.7,1.2c0.1,0.5,0.7,0.9,1.2,0.7c0.3-0.1,0.6-0.2,0.9-0.3c1-0.3,2-0.6,3.9-0.6c2,0,2.9,0.3,3.9,0.6   c1.1,0.3,2.2,0.6,4.5,0.6c0.6,0,1-0.4,1-1S95.6,56.8,95,56.8z"/><path d="M44.7,58.8c2.2,0,3.4-0.3,4.5-0.6c1-0.3,2-0.6,3.9-0.6s2.9,0.3,3.9,0.6c1.1,0.3,2.2,0.6,4.5,0.6c2.2,0,3.4-0.3,4.5-0.6   c1-0.3,2-0.6,3.9-0.6c2,0,2.9,0.3,3.9,0.6c0.5,0.1,1,0.3,1.5,0.4c0.5,0.1,1.1-0.3,1.2-0.8c0.1-0.5-0.3-1.1-0.8-1.2   c-0.5-0.1-0.9-0.2-1.4-0.3c-1.1-0.3-2.2-0.6-4.5-0.6c-2.2,0-3.4,0.3-4.5,0.6c-1,0.3-2,0.6-3.9,0.6c-2,0-2.9-0.3-3.9-0.6   c-1.1-0.3-2.2-0.6-4.5-0.6c-2.2,0-3.4,0.3-4.5,0.6c-1,0.3-2,0.6-3.9,0.6c-0.6,0-1,0.4-1,1S44.1,58.8,44.7,58.8z"/><path d="M95,52.9c-2,0-2.9-0.3-3.9-0.6c-0.4-0.1-0.9-0.2-1.3-0.3c-0.5-0.1-1.1,0.2-1.2,0.8c-0.1,0.5,0.2,1.1,0.8,1.2   c0.4,0.1,0.8,0.2,1.2,0.3c1.1,0.3,2.2,0.6,4.5,0.6c0.6,0,1-0.4,1-1S95.6,52.9,95,52.9z"/><path d="M82.7,54.2c1-0.3,2-0.6,3.9-0.6c0.6,0,1-0.4,1-1s-0.4-1-1-1c-2.2,0-3.4,0.3-4.5,0.6c-1,0.3-2,0.6-3.9,0.6   c-2,0-2.9-0.3-3.9-0.6c-1.1-0.3-2.2-0.6-4.5-0.6c-2.2,0-3.4,0.3-4.5,0.6c-0.6,0.2-1.1,0.3-1.9,0.4c-0.5,0.1-0.9,0.6-0.8,1.1   c0.1,0.5,0.6,0.9,1.1,0.8c0.9-0.1,1.5-0.3,2.1-0.5c1-0.3,2-0.6,3.9-0.6c2,0,2.9,0.3,3.9,0.6c1.1,0.3,2.2,0.6,4.5,0.6   C80.4,54.9,81.6,54.5,82.7,54.2z"/><path d="M49.1,54.2c1-0.3,2-0.6,3.9-0.6s2.9,0.3,3.9,0.6c0.2,0.1,0.4,0.1,0.6,0.2c0.5,0.1,1.1-0.2,1.2-0.7c0.1-0.5-0.2-1.1-0.7-1.2   c-0.2-0.1-0.4-0.1-0.6-0.2c-1.1-0.3-2.2-0.6-4.5-0.6s-3.4,0.3-4.5,0.6c-1,0.3-2,0.6-3.9,0.6c-2,0-2.9-0.3-3.9-0.5l0,0   c-0.5-0.1-1.1,0.2-1.2,0.7c-0.1,0.5,0.2,1.1,0.7,1.2c1.1,0.3,2.2,0.6,4.5,0.6C46.9,54.9,48,54.5,49.1,54.2z"/><path d="M82.1,48.3c-1,0.3-2,0.6-3.9,0.6c-2,0-2.9-0.3-3.9-0.6c-0.5-0.2-1.1-0.3-1.8-0.4c-0.6-0.1-1.1,0.3-1.2,0.8   c-0.1,0.5,0.3,1.1,0.8,1.2c0.6,0.1,1.1,0.2,1.6,0.4c1.1,0.3,2.2,0.6,4.5,0.6c2.2,0,3.4-0.3,4.5-0.6c1-0.3,2-0.6,3.9-0.6   c2,0,2.9,0.3,3.9,0.6c1.1,0.3,2.2,0.6,4.5,0.6c0.6,0,1-0.4,1-1s-0.4-1-1-1c-2,0-2.9-0.3-3.9-0.6c-1.1-0.3-2.2-0.6-4.5-0.6   C84.4,47.7,83.2,48,82.1,48.3z"/><path d="M44.7,50.9c2.2,0,3.4-0.3,4.5-0.6c1-0.3,2-0.6,3.9-0.6S56,50,57,50.2c1.1,0.3,2.2,0.6,4.5,0.6c2.2,0,3.4-0.3,4.5-0.6   c0.6-0.2,1.3-0.4,2.1-0.5c0.5-0.1,0.9-0.6,0.9-1.1c-0.1-0.5-0.6-0.9-1.1-0.9c-1,0.1-1.7,0.3-2.4,0.5c-1,0.3-2,0.6-3.9,0.6   c-2,0-2.9-0.3-3.9-0.6c-1.1-0.3-2.2-0.6-4.5-0.6c-2.2,0-3.4,0.3-4.5,0.6c-1,0.3-2,0.6-3.9,0.6c-0.6,0-1,0.4-1,1   S44.1,50.9,44.7,50.9z"/><path d="M77.3,37.3c3.6,0,6.5-2.9,6.5-6.5s-2.9-6.5-6.5-6.5s-6.5,2.9-6.5,6.5S73.7,37.3,77.3,37.3z M77.3,26.3c2.5,0,4.5,2,4.5,4.5   s-2,4.5-4.5,4.5s-4.5-2-4.5-4.5S74.8,26.3,77.3,26.3z"/><path d="M77.3,22.8c0.6,0,1-0.4,1-1v-1.5c0-0.6-0.4-1-1-1s-1,0.4-1,1v1.5C76.3,22.4,76.8,22.8,77.3,22.8z"/><path d="M78.3,41.3v-1.5c0-0.6-0.4-1-1-1s-1,0.4-1,1v1.5c0,0.6,0.4,1,1,1S78.3,41.8,78.3,41.3z"/><path d="M85.3,30.8c0,0.6,0.4,1,1,1h1.5c0.6,0,1-0.4,1-1s-0.4-1-1-1h-1.5C85.8,29.8,85.3,30.3,85.3,30.8z"/><path d="M66.8,31.8h1.5c0.6,0,1-0.4,1-1s-0.4-1-1-1h-1.5c-0.6,0-1,0.4-1,1S66.3,31.8,66.8,31.8z"/><path d="M83.7,25.4c0.3,0,0.5-0.1,0.7-0.3l1-1c0.4-0.4,0.4-1,0-1.4s-1-0.4-1.4,0l-1,1c-0.4,0.4-0.4,1,0,1.4   C83.2,25.4,83.4,25.4,83.7,25.4z"/><path d="M70.6,38.9l1-1c0.4-0.4,0.4-1,0-1.4s-1-0.4-1.4,0l-1,1c-0.4,0.4-0.4,1,0,1.4c0.2,0.2,0.5,0.3,0.7,0.3S70.4,39.1,70.6,38.9z   "/><path d="M84.7,39.2c0.3,0,0.5-0.1,0.7-0.3c0.4-0.4,0.4-1,0-1.4l-1-1c-0.4-0.4-1-0.4-1.4,0s-0.4,1,0,1.4l1,1   C84.2,39.1,84.5,39.2,84.7,39.2z"/><path d="M70.2,25.2c0.2,0.2,0.5,0.3,0.7,0.3s0.5-0.1,0.7-0.3c0.4-0.4,0.4-1,0-1.4l-1-1c-0.4-0.4-1-0.4-1.4,0s-0.4,1,0,1.4   L70.2,25.2z"/></g>
<!-- <text x="0" y="115" fill="#000000" font-size="5px" font-weight="bold" font-family="'Helvetica Neue', Helvetica, Arial-Unicode, Arial, Sans-serif">Created by Cahya Kurniawan</text><text x="0" y="120" fill="#000000" font-size="5px" font-weight="bold" font-family="'Helvetica Neue', Helvetica, Arial-Unicode, Arial, Sans-serif">from the Noun Project</text> -->
</svg>