<svg xmlns="http://www.w3.org/2000/svg" data-name="Layer 1" viewBox="0 0 99 123.75" x="0px" y="0px"><title>maps</title><path d="M49.5,9.43A28.85,28.85,0,0,0,20.68,38.25c0,9.64,8.65,25.13,12.37,31.34,1.22,2,12.09,20,16.45,20S64.73,71.63,66,69.59c3.72-6.21,12.37-21.7,12.37-31.34A28.85,28.85,0,0,0,49.5,9.43Zm0,77.1c-4.36-2-25.82-34.37-25.82-48.28a25.82,25.82,0,0,1,51.64,0C75.32,52.16,53.86,84.52,49.5,86.53Z"/><path d="M49.5,9.43A28.85,28.85,0,0,0,20.68,38.25c0,9.64,8.65,25.13,12.37,31.34,1.22,2,12.09,20,16.45,20S64.73,71.63,66,69.59c3.72-6.21,12.37-21.7,12.37-31.34A28.85,28.85,0,0,0,49.5,9.43Zm0,77.1c-4.36-2-25.82-34.37-25.82-48.28a25.82,25.82,0,0,1,51.64,0C75.32,52.16,53.86,84.52,49.5,86.53Z"/><path d="M49.5,21.66A16.55,16.55,0,1,0,66,38.21,16.56,16.56,0,0,0,49.5,21.66Zm6.79,17.77-.06.06-6.14,6.14a.86.86,0,0,1-.6.25.87.87,0,0,1-.59-.25l-6.14-6.14a.19.19,0,0,1-.06-.07,5.25,5.25,0,0,1,6.79-7.94,5.26,5.26,0,0,1,6.8,8Z"/><text x="0" y="114" fill="#000000" font-size="5px" font-weight="bold" font-family="'Helvetica Neue', Helvetica, Arial-Unicode, Arial, Sans-serif">Created by Najaya Design</text><text x="0" y="119" fill="#000000" font-size="5px" font-weight="bold" font-family="'Helvetica Neue', Helvetica, Arial-Unicode, Arial, Sans-serif">from the Noun Project</text></svg>