<svg xmlns="http://www.w3.org/2000/svg" viewBox="0 0 64 80" x="0px" y="0px"><g><path d="M61,19H44V17h3V15H43a1,1,0,0,0-1,1v3H29V17h3V15H28a1,1,0,0,0-1,1v3H25a9.011,9.011,0,0,0-9,9v4a1,1,0,0,0,1,1H61a1,1,0,0,0,1-1V20A1,1,0,0,0,61,19ZM60,31H18V28a7.008,7.008,0,0,1,7-7H60Z"/><path d="M24,24v4a1,1,0,0,0,1,1h4a1,1,0,0,0,1-1V24a1,1,0,0,0-1-1H25A1,1,0,0,0,24,24Zm2,1h2v2H26Z"/><path d="M33,29h4a1,1,0,0,0,1-1V24a1,1,0,0,0-1-1H33a1,1,0,0,0-1,1v4A1,1,0,0,0,33,29Zm1-4h2v2H34Z"/><path d="M41,29h4a1,1,0,0,0,1-1V24a1,1,0,0,0-1-1H41a1,1,0,0,0-1,1v4A1,1,0,0,0,41,29Zm1-4h2v2H42Z"/><path d="M49,29h4a1,1,0,0,0,1-1V24a1,1,0,0,0-1-1H49a1,1,0,0,0-1,1v4A1,1,0,0,0,49,29Zm1-4h2v2H50Z"/><path d="M21,49h6a1,1,0,0,0,1-1V42a1,1,0,0,0-1-1H21a1,1,0,0,0-1,1v6A1,1,0,0,0,21,49Zm1-6h4v4H22Z"/><path d="M11,49h6a1,1,0,0,0,1-1V42a1,1,0,0,0-1-1H11a1,1,0,0,0-1,1v6A1,1,0,0,0,11,49Zm1-6h4v4H12Z"/><path d="M3,13h7v6a1,1,0,0,0,1,1h3a1,1,0,0,0,.814-.419L19.515,13H29a1,1,0,0,0,1-1,6.006,6.006,0,0,0-6-6H9.618L7.9,2.553A1,1,0,0,0,7,2H3A1,1,0,0,0,2,3v9A1,1,0,0,0,3,13Zm10.485,5H12V13h5.057Zm14.388-7H4V8H24A4.007,4.007,0,0,1,27.873,11ZM4,4H6.382l1,2H4Z"/><rect x="34" y="15" width="4" height="2"/><rect x="49" y="15" width="4" height="2"/><path d="M55,62V48.91a6,6,0,1,0-2,0V62ZM50,43a4,4,0,1,1,4,4A4,4,0,0,1,50,43Z"/><path d="M3,59H5.142a3.981,3.981,0,0,0,7.716,0H29.142a3.981,3.981,0,0,0,7.716,0H41a1,1,0,0,0,1-1V38a1,1,0,0,0-1-1H3a1,1,0,0,0-1,1V58A1,1,0,0,0,3,59Zm6,1a2,2,0,1,1,2-2A2,2,0,0,1,9,60Zm24,0a2,2,0,1,1,2-2A2,2,0,0,1,33,60Zm7-13H32V43h8Zm0-8v2H31a1,1,0,0,0-1,1v6a1,1,0,0,0,1,1h9v2H38v2h2v4H36.858a3.981,3.981,0,0,0-7.716,0H12.858a3.981,3.981,0,0,0-7.716,0H4V53H6V51H4V49H7a1,1,0,0,0,1-1V42a1,1,0,0,0-1-1H4V39ZM4,43H6v4H4Z"/></g><text x="0" y="79" fill="#000000" font-size="5px" font-weight="bold" font-family="'Helvetica Neue', Helvetica, Arial-Unicode, Arial, Sans-serif">Created by Smalllike</text><text x="0" y="84" fill="#000000" font-size="5px" font-weight="bold" font-family="'Helvetica Neue', Helvetica, Arial-Unicode, Arial, Sans-serif">from the Noun Project</text></svg>