<svg xmlns="http://www.w3.org/2000/svg" xmlns:xlink="http://www.w3.org/1999/xlink" version="1.1" x="0px" y="0px" viewBox="0 0 64 80" style="enable-background:new 0 0 64 64;" xml:space="preserve"><g><path d="M61,15.0002995H43h-5v-9c0-0.3530273-0.1865234-0.6796875-0.4892578-0.8598633   c-0.3037109-0.1796875-0.6787109-0.1865234-0.9892578-0.0180664l-10.5585938,5.7592778L13.4189453,5.0920959   c-0.2998047-0.1396484-0.6494141-0.1196289-0.9335938,0.0507813l-10,6.0000005C2.1845703,11.3235416,2,11.6492252,2,12.0002995v42   c0,0.3603516,0.1933594,0.6928711,0.5068359,0.8701172c0.3134766,0.1782227,0.6982422,0.1733398,1.0078125-0.0126953   l9.546875-5.7280273L20,52.3323898v5.6679077c0,0.5522461,0.4472656,1,1,1h22h18c0.5527344,0,1-0.4477539,1-1v-42   C62,15.4480534,61.5527344,15.0002995,61,15.0002995z M13.0615234,7.1296935l12.5195313,5.7788091   c0.2871094,0.1323242,0.6210938,0.121582,0.8974609-0.0302734L36,7.6848693V47.004631   c-2.1127319-0.0057373-7.4042969-0.5531616-10.1181641-5.6234741c-1.828064-3.4138794-4.5313721-5.4860229-7.449707-6.715271   C20.0344849,32.2531662,24,25.9835758,24,23.0002995c0-3.8598633-3.140625-7-7-7s-7,3.1401367-7,7   c0,2.5967407,3.0077515,7.6875,4.8449097,10.5562725C10.3978271,32.6267014,6.0617065,33.1440353,4,33.5023117v-20.935606   L13.0615234,7.1296935z M17,33.2073288c-2.2041016-3.3627911-5-8.2719707-5-10.2070293c0-2.7568359,2.2431641-5,5-5   s5,2.2431641,5,5C22,24.9338932,19.203125,29.8435612,17,33.2073288z M13,47.0002975   c-0.1787109,0-0.3564453,0.0478516-0.5146484,0.1425781L4,52.2341843V35.5322189   c3.1411743-0.5997314,15.2758789-2.250061,20.1181641,6.7932739c2.3912964,4.4656982,6.4133911,5.9752808,9.3525391,6.4607544   l-7.5078125,4.0953979l-12.5439453-5.7895508C13.2861328,47.030571,13.1425781,47.0002975,13,47.0002975z M22,53.2555466   l3.5810547,1.6529541C25.7138672,54.9695358,25.8574219,55.0002975,26,55.0002975   c0.1650391,0,0.3300781-0.0410156,0.4785156-0.1220703l11-6C37.7998047,48.7029343,38,48.3660202,38,48.0002975V17.0002995h4v40H22   V53.2555466z M60,57.0002975H44v-40h16V57.0002975z"/><path d="M47,45.0002975h10c0.5527344,0,1-0.4477539,1-1v-5c0-3.3085938-2.6914063-6-6-6s-6,2.6914063-6,6v5   C46,44.5525436,46.4472656,45.0002975,47,45.0002975z M48,39.0002975c0-2.2055664,1.7939453-4,4-4s4,1.7944336,4,4v4h-8V39.0002975   z"/><path d="M52,31.0002995c2.7568359,0,5-2.2431641,5-5s-2.2431641-5-5-5s-5,2.2431641-5,5S49.2431641,31.0002995,52,31.0002995z    M52,23.0002995c1.6542969,0,3,1.3457031,3,3s-1.3457031,3-3,3s-3-1.3457031-3-3S50.3457031,23.0002995,52,23.0002995z"/><path d="M56,47.0002975h-8c-0.5527344,0-1,0.4477539-1,1s0.4472656,1,1,1h8c0.5527344,0,1-0.4477539,1-1   S56.5527344,47.0002975,56,47.0002975z"/><path d="M56,51.0002975h-8c-0.5527344,0-1,0.4477539-1,1s0.4472656,1,1,1h8c0.5527344,0,1-0.4477539,1-1   S56.5527344,51.0002975,56,51.0002975z"/><path d="M17.5498047,22.1702213c-0.0498047-0.0400391-0.1103516-0.0703125-0.1699219-0.090332   c-0.0605469-0.0297852-0.1201172-0.0498047-0.1904297-0.0595703c-0.1201172-0.0302734-0.2597656-0.0302734-0.3896484,0   c-0.0595703,0.0097656-0.1201172,0.0297852-0.1796875,0.0595703c-0.0605469,0.0200195-0.1201172,0.050293-0.1806641,0.090332   c-0.0498047,0.0400391-0.0996094,0.0800781-0.1494141,0.1201172C16.109375,22.4802799,16,22.7400455,16,23.0002995   c0,0.2597656,0.109375,0.5200195,0.2900391,0.7099609c0.0498047,0.0400391,0.0996094,0.0800781,0.1494141,0.1196289   c0.0605469,0.0400391,0.1201172,0.0703125,0.1806641,0.090332c0.0595703,0.0297852,0.1201172,0.0498047,0.1796875,0.0600586   C16.8701172,23.9900455,16.9394531,24.0002995,17,24.0002995c0.0595703,0,0.1298828-0.0102539,0.1894531-0.0200195   c0.0703125-0.0102539,0.1298828-0.0302734,0.1904297-0.0600586c0.0595703-0.0200195,0.1201172-0.050293,0.1699219-0.090332   c0.0595703-0.0395508,0.1103516-0.0795898,0.1601563-0.1196289C17.8896484,23.520319,18,23.2600651,18,23.0002995   c0-0.2602539-0.1103516-0.5200195-0.2900391-0.7099609C17.6601563,22.2502995,17.609375,22.2102604,17.5498047,22.1702213z"/></g><text x="0" y="79" fill="#000000" font-size="5px" font-weight="bold" font-family="'Helvetica Neue', Helvetica, Arial-Unicode, Arial, Sans-serif">Created by Asheeqa</text><text x="0" y="84" fill="#000000" font-size="5px" font-weight="bold" font-family="'Helvetica Neue', Helvetica, Arial-Unicode, Arial, Sans-serif">from the Noun Project</text></svg>