<?xml version="1.0" encoding="iso-8859-1"?>
<!-- Generator: Adobe Illustrator 19.0.0, SVG Export Plug-In . SVG Version: 6.00 Build 0)  -->
<svg fill="#dc3545" xmlns="http://www.w3.org/2000/svg" xmlns:xlink="http://www.w3.org/1999/xlink" version="1.1" id="Layer_1" x="0px" y="0px" viewBox="0 0 512 512" style="enable-background:new 0 0 512 512;" xml:space="preserve">
<g>
	<g>
		<g>
			<path d="M479.373,441.726h-19.576V272.063c0-20.759-16.888-37.647-37.647-37.647h-57.726v-20.931     c28.45-4.796,50.196-29.591,50.196-59.383c0-30.599-47.276-85.742-52.666-91.928c-1.906-2.189-4.667-3.444-7.57-3.444     s-5.663,1.256-7.57,3.444c-5.39,6.186-52.666,61.33-52.666,91.928c0,29.792,21.746,54.587,50.196,59.383v20.931H286.62     c-6.343,0-12.32,1.583-17.569,4.365v-25.447c0-20.759-16.888-37.647-37.647-37.647h-57.725v-20.931     c28.45-4.796,50.196-29.591,50.196-59.383c0-30.599-47.276-85.742-52.666-91.928C169.302,1.256,166.542,0,163.639,0     s-5.663,1.256-7.57,3.444c-5.39,6.186-52.666,61.33-52.666,91.928c0,29.792,21.746,54.587,50.196,59.383v20.931H95.875     c-20.759,0-37.647,16.888-37.647,37.647v228.392h-25.6c-5.544,0-10.039,4.495-10.039,10.039C22.588,484.978,49.61,512,82.824,512     h346.353c33.214,0,60.235-27.022,60.235-60.235C489.412,446.22,484.916,441.726,479.373,441.726z M314.227,154.102     c0-15.191,22.232-47.608,40.159-69.716c17.926,22.096,40.155,54.505,40.155,69.716c0,22.142-18.014,40.157-40.157,40.157     S314.227,176.244,314.227,154.102z M269.051,272.063c0-9.687,7.882-17.569,17.569-17.569h135.529     c9.687,0,17.569,7.882,17.569,17.569v91.357h-38.4c-5.397,0-9.788-4.391-9.788-9.788v-76.047c0-5.545-4.496-10.039-10.039-10.039     c-5.544,0-10.039,4.495-10.039,10.039v14.204c-3.069-1.068-6.36-1.655-9.788-1.655h-17.569c-7.968,0-15.466,3.101-21.133,8.752     c-5.632,5.647-8.734,13.145-8.734,21.115c0,5.397-4.391,9.788-9.788,9.788h-35.388V272.063z M269.051,349.867h35.388     c16.468,0,29.867-13.398,29.867-29.867c0-2.615,1.02-5.079,2.853-6.916c1.857-1.852,4.321-2.872,6.935-2.872h17.569     c5.397,0,9.788,4.391,9.788,9.788v33.631c0,16.468,13.398,29.867,29.867,29.867h38.4v58.227H269.051V349.867z M123.482,95.373     c0-15.191,22.232-47.608,40.159-69.716c17.926,22.096,40.155,54.505,40.155,69.716c0,22.143-18.014,40.157-40.157,40.157     S123.482,117.515,123.482,95.373z M78.306,213.333c0-9.687,7.882-17.569,17.569-17.569h135.529     c9.687,0,17.569,7.882,17.569,17.569v73.788h-43.42c-16.468,0-29.867,13.398-29.867,29.867v7.529     c0,5.397-4.391,9.788-9.788,9.788h-11.043c-5.397,0-9.788-4.391-9.788-9.788v-44.674c0-16.468-13.398-29.867-29.867-29.867     H78.306V213.333z M78.306,270.055H115.2c5.397,0,9.788,4.391,9.788,9.788v105.663c0,5.545,4.496,10.039,10.039,10.039     s10.039-4.495,10.039-10.039v-32.777c3.069,1.068,6.36,1.655,9.788,1.655h11.043c16.468,0,29.867-13.398,29.867-29.867v-7.529     c0-5.397,4.391-9.788,9.788-9.788h43.42v134.526H78.306V270.055z M429.177,491.922H82.824c-18.677,0-34.417-12.817-38.886-30.118     h424.126C463.594,479.105,447.853,491.922,429.177,491.922z"/>
			<path d="M173.678,102.568v-1.004c0-5.545-4.496-10.039-10.039-10.039S153.6,96.019,153.6,101.564v1.004     c0,5.545,4.496,10.039,10.039,10.039S173.678,108.111,173.678,102.568z"/>
			<path d="M364.424,161.297v-1.004c0-5.545-4.496-10.039-10.039-10.039s-10.039,4.495-10.039,10.039v1.004     c0,5.545,4.496,10.039,10.039,10.039S364.424,166.841,364.424,161.297z"/>
			<path d="M321.255,374.463c-5.544,0-10.039,4.495-10.039,10.039v3.012c0,5.545,4.496,10.039,10.039,10.039     c5.544,0,10.039-4.495,10.039-10.039v-3.012C331.294,378.957,326.799,374.463,321.255,374.463z"/>
			<path d="M192.753,258.008c5.544,0,10.039-4.495,10.039-10.039v-3.012c0-5.545-4.496-10.039-10.039-10.039     c-5.544,0-10.039,4.495-10.039,10.039v3.012C182.714,253.513,187.209,258.008,192.753,258.008z"/>
		</g>
	</g>
</g>
<g>
</g>
<g>
</g>
<g>
</g>
<g>
</g>
<g>
</g>
<g>
</g>
<g>
</g>
<g>
</g>
<g>
</g>
<g>
</g>
<g>
</g>
<g>
</g>
<g>
</g>
<g>
</g>
<g>
</g>
</svg>
